<?xml version="1.0" encoding="utf-8"?>
<COLLADA xmlns="http://www.collada.org/2005/11/COLLADASchema" version="1.4.1">
  <asset>
    <contributor>
      <author/>
      <authoring_tool>FBX COLLADA exporter</authoring_tool>
      <comments/>
    </contributor>
    <created>2021-10-28T07:52:28Z</created>
    <keywords/>
    <modified>2021-10-28T07:52:28Z</modified>
    <revision/>
    <subject/>
    <title/>
    <unit meter="0.025400" name="centimeter"/>
    <up_axis>Y_UP</up_axis>
  </asset>
  <library_materials>
    <material id="MaterialFBXASC032FBXASC0352142150880" name="MaterialFBXASC032FBXASC0352142150880">
      <instance_effect url="#MaterialFBXASC032FBXASC0352142150880-fx"/>
    </material>
    <material id="MaterialFBXASC032FBXASC0352142171025" name="MaterialFBXASC032FBXASC0352142171025">
      <instance_effect url="#MaterialFBXASC032FBXASC0352142171025-fx"/>
    </material>
    <material id="MaterialFBXASC032FBXASC0352142148966" name="MaterialFBXASC032FBXASC0352142148966">
      <instance_effect url="#MaterialFBXASC032FBXASC0352142148966-fx"/>
    </material>
    <material id="MaterialFBXASC032FBXASC0352142172407" name="MaterialFBXASC032FBXASC0352142172407">
      <instance_effect url="#MaterialFBXASC032FBXASC0352142172407-fx"/>
    </material>
  </library_materials>
  <library_effects>
    <effect id="MaterialFBXASC032FBXASC0352142150880-fx" name="MaterialFBXASC032FBXASC0352142150880">
      <profile_COMMON>
        <technique sid="standard">
          <phong>
            <emission>
              <color sid="emission">0.000000  0.000000 0.000000 1.000000</color>
            </emission>
            <ambient>
              <color sid="ambient">0.000000  0.000000 0.000000 1.000000</color>
            </ambient>
            <diffuse>
              <color sid="diffuse">0.231373  0.231373 0.231373 1.000000</color>
            </diffuse>
            <specular>
              <color sid="specular">0.000000  0.000000 0.000000 1.000000</color>
            </specular>
            <shininess>
              <float sid="shininess">1024.000000</float>
            </shininess>
            <transparency>
              <float sid="transparency">0.000000</float>
            </transparency>
          </phong>
        </technique>
      </profile_COMMON>
    </effect>
    <effect id="MaterialFBXASC032FBXASC0352142171025-fx" name="MaterialFBXASC032FBXASC0352142171025">
      <profile_COMMON>
        <technique sid="standard">
          <phong>
            <emission>
              <color sid="emission">0.000000  0.000000 0.000000 1.000000</color>
            </emission>
            <ambient>
              <color sid="ambient">0.000000  0.000000 0.000000 1.000000</color>
            </ambient>
            <diffuse>
              <color sid="diffuse">0.231373  0.231373 0.231373 1.000000</color>
            </diffuse>
            <specular>
              <color sid="specular">0.000000  0.000000 0.000000 1.000000</color>
            </specular>
            <shininess>
              <float sid="shininess">1024.000000</float>
            </shininess>
            <transparency>
              <float sid="transparency">0.000000</float>
            </transparency>
          </phong>
        </technique>
      </profile_COMMON>
    </effect>
    <effect id="MaterialFBXASC032FBXASC0352142148966-fx" name="MaterialFBXASC032FBXASC0352142148966">
      <profile_COMMON>
        <technique sid="standard">
          <phong>
            <emission>
              <color sid="emission">0.000000  0.000000 0.000000 1.000000</color>
            </emission>
            <ambient>
              <color sid="ambient">0.000000  0.000000 0.000000 1.000000</color>
            </ambient>
            <diffuse>
              <color sid="diffuse">0.231373  0.231373 0.231373 1.000000</color>
            </diffuse>
            <specular>
              <color sid="specular">0.000000  0.000000 0.000000 1.000000</color>
            </specular>
            <shininess>
              <float sid="shininess">1024.000000</float>
            </shininess>
            <transparency>
              <float sid="transparency">0.000000</float>
            </transparency>
          </phong>
        </technique>
      </profile_COMMON>
    </effect>
    <effect id="MaterialFBXASC032FBXASC0352142172407-fx" name="MaterialFBXASC032FBXASC0352142172407">
      <profile_COMMON>
        <technique sid="standard">
          <phong>
            <emission>
              <color sid="emission">0.000000  0.000000 0.000000 1.000000</color>
            </emission>
            <ambient>
              <color sid="ambient">0.000000  0.000000 0.000000 1.000000</color>
            </ambient>
            <diffuse>
              <color sid="diffuse">0.231373  0.231373 0.231373 1.000000</color>
            </diffuse>
            <specular>
              <color sid="specular">0.000000  0.000000 0.000000 1.000000</color>
            </specular>
            <shininess>
              <float sid="shininess">1024.000000</float>
            </shininess>
            <transparency>
              <float sid="transparency">0.000000</float>
            </transparency>
          </phong>
        </technique>
      </profile_COMMON>
    </effect>
  </library_effects>
  <library_geometries>
    <geometry id="StandkonsoleFBXASC032grade-lib" name="StandkonsoleFBXASC032gradeMesh">
      <mesh>
        <source id="StandkonsoleFBXASC032grade-POSITION">
          <float_array id="StandkonsoleFBXASC032grade-POSITION-array" count="444">
-18.152524 -7.651432 0.603377
-15.263152 -7.651432 0.603377
-8.829871 -4.900630 0.603377
-2.396590 -2.907826 0.603376
-21.696433 2.518303 4.024735
-15.263152 2.518303 4.024735
-8.829871 2.518303 4.024735
-2.396590 4.511106 4.024735
-16.671546 7.651432 7.180367
-12.332740 7.651432 7.180367
-8.829871 7.651432 7.180367
-5.280349 7.651432 7.180367
-18.152524 -7.651432 1.965470
-15.263152 -7.651432 1.965470
-8.829871 -4.900630 1.965470
-2.396590 -2.907826 1.965470
-21.696433 2.518303 5.386828
-15.263152 2.518303 5.386828
-8.829871 2.518303 5.386828
-2.396590 4.511106 5.386828
-16.671546 7.651432 8.542460
-12.332740 7.651432 8.542460
-8.829871 7.651432 8.542460
-5.280349 7.651432 8.542460
18.152520 -7.651431 0.603377
15.263150 -7.651432 0.603377
8.829869 -4.900630 0.603377
2.396589 -2.907827 0.603376
21.696431 2.518304 4.024735
15.263150 2.518303 4.024735
8.829869 2.518303 4.024735
2.396588 4.511106 4.024735
16.671544 7.651433 7.180367
12.332738 7.651432 7.180367
8.829869 7.651432 7.180367
5.280347 7.651431 7.180367
18.152520 -7.651431 1.965470
15.263150 -7.651432 1.965470
8.829869 -4.900630 1.965470
2.396589 -2.907827 1.965470
21.696431 2.518304 5.386828
15.263150 2.518303 5.386828
8.829869 2.518303 5.386828
2.396588 4.511106 5.386828
16.671544 7.651433 8.542460
12.332738 7.651432 8.542460
8.829869 7.651432 8.542460
5.280347 7.651431 8.542460
-2.388131 2.947845 0.394278
-2.388131 6.332283 1.607941
2.388131 6.332283 1.607941
2.388131 2.947845 0.394278
-1.797443 4.456092 -1.424028
-1.797443 6.798852 -1.203632
1.797441 6.798852 -1.203632
1.797441 4.456091 -1.424028
-2.396590 4.377388 -7.735548
-2.396590 7.552612 -7.623817
2.396588 7.552612 -7.623817
2.396589 4.377388 -7.735547
-2.396590 4.405782 -8.542459
-2.396590 7.581006 -8.430729
2.396588 7.581006 -8.430729
2.396589 4.405781 -8.542459
-7.045373 2.327770 -7.735548
-10.470709 5.502995 -7.623817
-10.470709 5.531388 -8.430729
-7.045373 2.356164 -8.542459
10.470708 5.502996 -7.623817
7.045371 2.327772 -7.735547
7.045371 2.356166 -8.542459
10.470708 5.531390 -8.430729
-13.442382 2.177397 5.090815
-13.442382 -6.779171 2.077598
-7.776540 -4.356517 2.077598
-2.110697 -2.601439 2.077598
2.110695 -2.601440 2.077598
7.776536 -4.356518 2.077598
13.442380 -6.779171 2.077598
13.442380 2.177397 5.090815
7.776536 2.177397 5.090815
2.110694 3.932474 5.090815
-2.110697 3.932475 5.090815
-7.776540 2.177397 5.090815
-18.090104 -7.051449 2.061812
-15.523541 -7.051449 2.061812
-15.523541 1.982093 5.100926
-21.238076 1.982093 5.100926
-21.114863 2.857418 5.477916
-15.400327 2.857418 5.477916
-12.797310 7.417058 8.280992
-16.651371 7.417058 8.280992
-14.821930 2.857418 5.477916
-9.107395 2.857418 5.477916
-9.107395 7.417058 8.280992
-12.218913 7.417058 8.280992
-8.562558 2.918387 5.482233
-2.848023 4.688549 5.482233
-5.409599 7.478028 8.285308
-8.562558 7.478028 8.285308
18.090100 -7.051448 2.061812
21.238072 1.982094 5.100926
15.523540 1.982093 5.100926
15.523540 -7.051448 2.061812
21.114861 2.857419 5.477916
16.651370 7.417059 8.280992
12.797309 7.417058 8.280992
15.400327 2.857418 5.477916
14.821929 2.857418 5.477916
12.218911 7.417058 8.280992
9.107392 7.417058 8.280992
9.107392 2.857418 5.477916
8.562556 2.918387 5.482233
8.562556 7.478027 8.285308
5.409596 7.478027 8.285308
2.848021 4.688548 5.482233
-3.184175 2.512369 1.685597
0.000001 5.894326 2.933131
3.184175 2.512368 1.685597
0.000001 -0.869589 0.438064
-2.396590 5.233469 0.204562
-0.000001 6.717994 0.624688
2.396588 5.233469 0.204562
-0.000001 3.748944 -0.215565
-2.396590 5.841284 -4.163849
-0.000001 7.428896 -4.107984
2.396588 5.841283 -4.163849
-0.000001 4.253672 -4.219715
-3.184175 4.640065 1.001110
0.000001 6.896357 1.810218
3.184175 4.640064 1.001110
0.000001 2.383772 0.192001
-2.388130 -0.024099 0.749947
-2.388130 5.048837 2.621247
2.388131 5.048836 2.621247
2.388131 -0.024100 0.749947
-2.396590 5.627472 -1.313830
-0.000001 7.189312 -1.166899
2.396588 5.627471 -1.313830
-0.000001 4.065632 -1.460761
-1.797442 4.120075 -0.110533
-1.797442 6.346863 0.519657
1.797441 6.346862 0.519657
1.797441 4.120075 -0.110533
-1.797442 4.650575 -4.205748
-1.797442 7.031993 -4.121950
1.797441 7.031993 -4.121950
1.797441 4.650575 -4.205748
</float_array>
          <technique_common>
            <accessor source="#StandkonsoleFBXASC032grade-POSITION-array" count="148" stride="3">
              <param name="X" type="float"/>
              <param name="Y" type="float"/>
              <param name="Z" type="float"/>
            </accessor>
          </technique_common>
        </source>
        <source id="StandkonsoleFBXASC032grade-Normal0">
          <float_array id="StandkonsoleFBXASC032grade-Normal0-array" count="2628">
-0.019435 0.434489 -0.900468
-0.033328 0.337563 -0.940713
0.000000 0.318864 -0.947800
0.000000 0.318864 -0.947800
0.000000 0.405703 -0.914005
-0.019435 0.434489 -0.900468
-0.097981 0.383385 -0.918377
-0.019435 0.434489 -0.900468
-0.081410 0.465297 -0.881403
-0.019435 0.434489 -0.900468
-0.097981 0.383385 -0.918377
-0.033328 0.337563 -0.940713
-0.128645 0.415299 -0.900543
-0.081410 0.465297 -0.881403
-0.122639 0.495657 -0.859816
-0.081410 0.465297 -0.881403
-0.128645 0.415299 -0.900543
-0.097981 0.383385 -0.918377
0.000000 0.523710 -0.851896
-0.019435 0.434489 -0.900468
0.000000 0.405703 -0.914005
-0.019435 0.434489 -0.900468
0.000000 0.523710 -0.851896
0.000000 0.523710 -0.851897
0.000000 0.523710 -0.851897
-0.081410 0.465297 -0.881403
-0.019435 0.434489 -0.900468
-0.081410 0.465297 -0.881403
0.000000 0.523710 -0.851897
-0.057701 0.551491 -0.832183
-0.122639 0.495657 -0.859816
-0.081410 0.465297 -0.881403
-0.115142 0.576795 -0.808733
-0.081410 0.465297 -0.881403
-0.057701 0.551491 -0.832183
-0.115142 0.576795 -0.808733
0.000000 -0.318864 0.947800
0.000000 -0.318864 0.947800
0.000000 -0.318864 0.947800
0.000000 -0.318864 0.947800
0.000000 -0.318864 0.947800
0.000000 -0.318864 0.947800
0.077284 -0.361485 0.929169
0.097981 -0.383385 0.918377
0.105094 -0.390845 0.914437
0.097981 -0.383385 0.918377
0.077284 -0.361485 0.929169
0.077284 -0.361485 0.929169
0.105094 -0.390845 0.914437
0.128645 -0.415299 0.900543
0.128645 -0.415299 0.900543
0.128645 -0.415299 0.900543
0.105094 -0.390845 0.914437
0.097981 -0.383385 0.918377
0.000000 -0.523710 0.851897
0.000000 -0.523710 0.851897
0.000000 -0.523710 0.851897
0.000000 -0.523710 0.851897
0.000000 -0.523710 0.851897
0.000000 -0.523710 0.851897
0.000000 -0.523710 0.851897
0.000000 -0.523710 0.851897
0.000000 -0.523710 0.851897
0.000000 -0.523710 0.851897
0.000000 -0.523710 0.851897
0.000000 -0.523710 0.851896
0.115142 -0.576795 0.808733
0.115142 -0.576795 0.808733
0.115142 -0.576795 0.808733
0.115142 -0.576795 0.808733
0.115142 -0.576795 0.808733
0.115142 -0.576795 0.808733
0.200659 -0.979661 0.000000
0.000000 -1.000000 0.000000
0.000000 -1.000000 0.000000
0.200659 -0.979661 0.000000
0.000000 -1.000000 0.000000
0.200659 -0.979661 0.000000
0.344988 -0.938607 0.000000
0.200659 -0.979661 0.000000
0.200659 -0.979661 0.000000
0.344988 -0.938607 0.000000
0.200659 -0.979661 0.000000
0.344988 -0.938607 0.000000
0.295894 -0.955221 0.000000
0.344988 -0.938607 0.000000
0.344988 -0.938607 0.000000
0.295894 -0.955221 0.000000
0.344988 -0.938607 0.000000
0.295894 -0.955221 0.000000
0.736555 0.676378 0.000000
0.736555 0.676378 0.000000
0.736555 0.676378 0.000000
0.736555 0.676378 0.000000
0.736555 0.676378 0.000000
0.736555 0.676378 0.000000
0.000000 1.000000 0.000000
0.000000 1.000000 0.000000
0.000000 1.000000 0.000000
0.000000 1.000000 0.000000
0.000000 1.000000 0.000000
0.000000 1.000000 0.000000
0.000000 1.000000 0.000000
0.000000 1.000000 0.000000
0.000000 1.000000 0.000000
0.000000 1.000000 0.000000
0.000000 1.000000 0.000000
0.000000 1.000000 0.000000
0.000000 1.000000 0.000000
0.000000 1.000000 0.000000
0.000000 1.000000 0.000000
0.000000 1.000000 0.000000
0.000000 1.000000 0.000000
0.000000 1.000000 0.000000
-0.937090 0.349087 0.000000
-0.714601 0.699532 0.000000
-0.997310 0.073306 0.000000
-0.937090 0.349087 0.000000
-0.714601 0.699532 0.000000
-0.714601 0.699532 0.000000
-0.944306 -0.329068 0.000000
-0.937090 0.349087 0.000000
-0.997310 0.073306 0.000000
-0.944306 -0.329068 0.000000
-0.997310 0.073306 0.000000
-0.944306 -0.329068 0.000000
0.033328 0.337563 -0.940713
0.019435 0.434489 -0.900468
-0.000000 0.318864 -0.947800
-0.000000 0.318864 -0.947800
0.019435 0.434489 -0.900468
-0.000000 0.405703 -0.914005
0.097981 0.383385 -0.918377
0.019435 0.434489 -0.900468
0.033328 0.337563 -0.940713
0.019435 0.434489 -0.900468
0.097981 0.383385 -0.918377
0.081410 0.465297 -0.881403
0.128645 0.415299 -0.900542
0.081410 0.465297 -0.881403
0.097981 0.383385 -0.918377
0.081410 0.465297 -0.881403
0.128645 0.415299 -0.900542
0.122638 0.495657 -0.859816
0.019435 0.434489 -0.900468
-0.000000 0.523710 -0.851897
-0.000000 0.405703 -0.914005
-0.000000 0.523710 -0.851897
0.019435 0.434489 -0.900468
-0.000000 0.523710 -0.851897
0.081410 0.465297 -0.881403
-0.000000 0.523710 -0.851897
0.019435 0.434489 -0.900468
-0.000000 0.523710 -0.851897
0.081410 0.465297 -0.881403
0.057700 0.551491 -0.832183
0.115142 0.576795 -0.808733
0.081410 0.465297 -0.881403
0.122638 0.495657 -0.859816
0.081410 0.465297 -0.881403
0.115142 0.576795 -0.808733
0.057700 0.551491 -0.832183
0.000000 -0.318864 0.947800
0.000000 -0.318864 0.947800
0.000000 -0.318864 0.947800
0.000000 -0.318864 0.947800
0.000000 -0.318864 0.947800
0.000000 -0.318864 0.947800
-0.077284 -0.361485 0.929169
-0.097981 -0.383385 0.918377
-0.077284 -0.361485 0.929169
-0.097981 -0.383385 0.918377
-0.077284 -0.361485 0.929169
-0.105094 -0.390845 0.914437
-0.105094 -0.390845 0.914437
-0.128645 -0.415299 0.900543
-0.097981 -0.383385 0.918377
-0.128645 -0.415299 0.900543
-0.105094 -0.390845 0.914437
-0.128645 -0.415299 0.900543
0.000000 -0.523710 0.851897
0.000000 -0.523710 0.851897
0.000000 -0.523710 0.851897
0.000000 -0.523710 0.851897
0.000000 -0.523710 0.851897
0.000000 -0.523710 0.851897
0.000000 -0.523710 0.851897
0.000000 -0.523710 0.851897
0.000000 -0.523710 0.851897
0.000000 -0.523710 0.851897
0.000000 -0.523710 0.851897
0.000000 -0.523710 0.851897
-0.115142 -0.576795 0.808733
-0.115142 -0.576795 0.808733
-0.115142 -0.576795 0.808733
-0.115142 -0.576795 0.808733
-0.115142 -0.576795 0.808733
-0.115142 -0.576795 0.808733
-0.200659 -0.979661 0.000000
0.000000 -1.000000 0.000000
0.000000 -1.000000 0.000000
0.000000 -1.000000 0.000000
-0.200659 -0.979661 0.000000
-0.200659 -0.979661 0.000000
-0.344988 -0.938607 0.000000
-0.200659 -0.979661 0.000000
-0.200659 -0.979661 0.000000
-0.200659 -0.979661 0.000000
-0.344988 -0.938607 0.000000
-0.344988 -0.938607 0.000000
-0.295894 -0.955221 0.000000
-0.344988 -0.938607 0.000000
-0.344988 -0.938607 0.000000
-0.344988 -0.938607 0.000000
-0.295894 -0.955221 0.000000
-0.295894 -0.955221 0.000000
-0.736555 0.676378 0.000000
-0.736555 0.676378 0.000000
-0.736555 0.676378 0.000000
-0.736555 0.676378 0.000000
-0.736555 0.676378 0.000000
-0.736555 0.676378 0.000000
-0.000000 1.000000 0.000000
-0.000000 1.000000 0.000000
-0.000000 1.000000 0.000000
-0.000000 1.000000 0.000000
-0.000000 1.000000 0.000000
-0.000000 1.000000 0.000000
-0.000000 1.000000 0.000000
-0.000000 1.000000 0.000000
-0.000000 1.000000 0.000000
-0.000000 1.000000 0.000000
-0.000000 1.000000 0.000000
-0.000000 1.000000 0.000000
-0.000000 1.000000 0.000000
-0.000000 1.000000 0.000000
-0.000000 1.000000 0.000000
-0.000000 1.000000 0.000000
-0.000000 1.000000 0.000000
-0.000000 1.000000 0.000000
0.937090 0.349087 0.000000
0.714601 0.699532 0.000000
0.714601 0.699532 0.000000
0.997310 0.073306 0.000000
0.714601 0.699532 0.000000
0.937090 0.349087 0.000000
0.944306 -0.329068 0.000000
0.997310 0.073306 0.000000
0.937090 0.349087 0.000000
0.944306 -0.329068 0.000000
0.997310 0.073306 0.000000
0.944306 -0.329068 0.000000
0.000000 1.000000 0.000000
0.000000 1.000000 0.000000
0.000000 1.000000 0.000000
0.000000 1.000000 0.000000
0.000000 1.000000 0.000000
0.000000 1.000000 0.000000
-0.000000 -0.418779 0.908088
-0.000000 -0.418779 0.908088
-0.000000 -0.418779 0.908088
-0.000000 -0.418779 0.908088
-0.000000 -0.418779 0.908088
-0.000000 -0.418779 0.908088
-0.000000 -1.000000 0.000000
-0.000000 -1.000000 0.000000
-0.000000 -1.000000 0.000000
-0.000000 -1.000000 0.000000
-0.000000 -1.000000 0.000000
-0.000000 -1.000000 0.000000
0.000000 0.035166 -0.999382
0.000000 0.035166 -0.999381
0.000000 0.035166 -0.999381
0.000000 0.035166 -0.999381
0.000000 0.035166 -0.999381
0.000000 0.035166 -0.999381
-0.680051 -0.732711 -0.025783
-0.680051 -0.732711 -0.025783
-0.680051 -0.732711 -0.025783
-0.680051 -0.732711 -0.025783
-0.680051 -0.732711 -0.025783
-0.680051 -0.732711 -0.025783
0.000000 0.999381 0.035166
0.000000 0.999381 0.035166
0.000000 0.999381 0.035166
0.000000 0.999381 0.035166
0.000000 0.999381 0.035166
0.000000 0.999381 0.035166
0.680051 -0.732711 -0.025783
0.680051 -0.732711 -0.025783
0.680051 -0.732711 -0.025783
0.680051 -0.732711 -0.025783
0.680051 -0.732711 -0.025783
0.680051 -0.732711 -0.025783
-0.000000 -0.999381 -0.035166
-0.000000 -0.999381 -0.035166
-0.000000 -0.999381 -0.035166
-0.000000 -0.999381 -0.035166
-0.000000 -0.999381 -0.035166
-0.000000 -0.999381 -0.035166
0.009654 -0.029964 0.999504
0.009654 -0.029964 0.999504
0.009654 -0.029964 0.999504
0.009654 -0.029964 0.999504
0.009654 -0.029964 0.999504
0.009654 -0.029964 0.999504
-0.245904 0.968695 0.034087
-0.245904 0.968695 0.034087
-0.245904 0.968695 0.034087
-0.245904 0.968695 0.034087
-0.245904 0.968695 0.034087
-0.245904 0.968695 0.034087
-0.009654 0.029964 -0.999504
-0.009654 0.029964 -0.999504
-0.009654 0.029964 -0.999504
-0.009654 0.029964 -0.999504
-0.009654 0.029964 -0.999504
-0.009654 0.029964 -0.999504
0.403214 -0.914540 -0.032181
0.403214 -0.914540 -0.032181
0.403214 -0.914539 -0.032181
0.403214 -0.914540 -0.032181
0.403214 -0.914540 -0.032181
0.403214 -0.914539 -0.032181
-0.009654 -0.029964 0.999504
-0.009654 -0.029964 0.999504
-0.009654 -0.029964 0.999504
-0.009654 -0.029964 0.999504
-0.009654 -0.029964 0.999504
-0.009654 -0.029964 0.999504
-0.403214 -0.914540 -0.032181
-0.403214 -0.914540 -0.032181
-0.403214 -0.914540 -0.032181
-0.403214 -0.914540 -0.032181
-0.403214 -0.914540 -0.032181
-0.403214 -0.914540 -0.032181
0.009654 0.029964 -0.999504
0.009654 0.029964 -0.999504
0.009654 0.029964 -0.999504
0.009654 0.029964 -0.999504
0.009654 0.029964 -0.999504
0.009654 0.029964 -0.999504
0.245903 0.968695 0.034086
0.245903 0.968695 0.034086
0.245903 0.968695 0.034086
0.245903 0.968695 0.034086
0.245903 0.968695 0.034086
0.245903 0.968695 0.034086
0.093970 -0.317453 0.943606
0.093970 -0.317453 0.943606
0.093970 -0.317453 0.943606
0.093970 -0.317453 0.943606
0.093970 -0.317453 0.943606
0.093970 -0.317453 0.943606
0.311733 -0.729047 0.609355
0.311733 -0.729047 0.609355
0.311733 -0.729047 0.609355
0.311733 -0.729047 0.609355
0.311733 -0.729047 0.609355
0.311733 -0.729047 0.609355
0.140369 -0.453147 0.880315
0.140369 -0.453147 0.880315
0.140369 -0.453147 0.880315
0.140369 -0.453147 0.880315
0.140369 -0.453147 0.880315
0.140369 -0.453147 0.880315
-0.000000 -0.343677 0.939088
-0.000000 -0.343677 0.939088
-0.000000 -0.343677 0.939088
-0.000000 -0.343677 0.939088
-0.000000 -0.343677 0.939088
-0.000000 -0.343677 0.939088
-0.140369 -0.453148 0.880315
-0.140369 -0.453148 0.880314
-0.140369 -0.453148 0.880314
-0.140369 -0.453148 0.880314
-0.140369 -0.453148 0.880315
-0.140369 -0.453148 0.880315
-0.311733 -0.729047 0.609355
-0.311733 -0.729047 0.609355
-0.311733 -0.729047 0.609355
-0.311733 -0.729047 0.609355
-0.311733 -0.729047 0.609355
-0.311733 -0.729047 0.609355
-0.093970 -0.317453 0.943606
-0.093970 -0.317453 0.943606
-0.093970 -0.317453 0.943606
-0.093970 -0.317453 0.943606
-0.093970 -0.317453 0.943606
-0.093970 -0.317453 0.943606
0.000000 -0.655640 0.755074
0.000000 -0.655640 0.755074
0.000000 -0.655640 0.755074
0.000000 -0.655640 0.755074
0.000000 -0.655640 0.755074
0.000000 -0.655640 0.755074
-0.124645 -0.402385 0.906946
-0.124645 -0.402385 0.906946
-0.124645 -0.402385 0.906946
-0.124645 -0.402385 0.906946
-0.124645 -0.402385 0.906946
-0.124645 -0.402385 0.906946
-0.000000 -0.455438 0.890267
-0.000000 -0.455438 0.890268
-0.000000 -0.455438 0.890267
-0.000000 -0.455438 0.890268
-0.000000 -0.455438 0.890267
-0.000000 -0.455438 0.890268
0.124645 -0.402385 0.906946
0.124645 -0.402385 0.906946
0.124645 -0.402385 0.906945
0.124645 -0.402385 0.906946
0.124645 -0.402385 0.906945
0.124645 -0.402385 0.906946
0.000000 -0.655640 0.755074
0.000000 -0.655640 0.755074
0.000000 -0.655640 0.755074
0.000000 -0.655640 0.755074
0.000000 -0.655640 0.755074
0.000000 -0.655640 0.755074
0.000000 -0.158544 0.987352
0.000000 -0.158544 0.987352
0.000000 -0.158544 0.987352
0.000000 -0.158544 0.987352
0.000000 -0.158544 0.987352
0.000000 -0.158544 0.987352
-0.358512 -0.297668 0.884795
-0.358512 -0.297668 0.884795
-0.358512 -0.297668 0.884796
-0.358512 -0.297668 0.884795
-0.358512 -0.297668 0.884795
-0.358512 -0.297668 0.884795
0.000000 -0.470490 0.882405
0.000000 -0.470490 0.882405
0.000000 -0.470490 0.882405
0.000000 -0.470490 0.882405
0.000000 -0.470490 0.882405
0.000000 -0.470490 0.882405
0.356025 -0.184151 0.916152
0.356025 -0.184151 0.916152
0.356025 -0.184151 0.916152
0.356025 -0.184151 0.916152
0.356025 -0.184151 0.916152
0.356025 -0.184151 0.916152
0.000000 -0.259412 0.965767
0.000000 -0.259412 0.965767
0.000000 -0.259412 0.965767
0.000000 -0.259412 0.965767
0.000000 -0.259412 0.965767
0.000000 -0.259412 0.965767
-0.311755 -0.362072 0.878472
-0.311755 -0.362072 0.878472
-0.311755 -0.362072 0.878472
-0.311755 -0.362072 0.878472
-0.311755 -0.362072 0.878472
-0.311755 -0.362072 0.878472
0.000000 -0.744634 0.667472
0.000000 -0.744635 0.667472
0.000000 -0.744635 0.667472
0.000000 -0.744635 0.667472
0.000000 -0.744634 0.667472
0.000000 -0.744635 0.667472
0.305027 -0.697330 0.648605
0.305027 -0.697330 0.648605
0.305027 -0.697330 0.648605
0.305027 -0.697330 0.648605
0.305027 -0.697330 0.648605
0.305027 -0.697330 0.648605
0.000000 -0.259412 0.965767
0.000000 -0.259412 0.965767
0.000000 -0.259412 0.965767
0.000000 -0.259412 0.965767
0.000000 -0.259412 0.965767
0.000000 -0.259412 0.965767
-0.338993 -0.492701 0.801455
-0.338993 -0.492701 0.801455
-0.338993 -0.492701 0.801455
-0.338993 -0.492701 0.801455
-0.338993 -0.492701 0.801455
-0.338993 -0.492701 0.801455
0.000000 -0.744634 0.667472
0.000000 -0.744635 0.667472
0.000000 -0.744634 0.667472
0.000000 -0.744635 0.667472
0.000000 -0.744634 0.667472
0.000000 -0.744635 0.667472
0.334478 -0.624714 0.705590
0.334478 -0.624714 0.705590
0.334478 -0.624714 0.705590
0.334478 -0.624714 0.705590
0.334478 -0.624714 0.705590
0.334478 -0.624714 0.705590
0.088847 -0.286821 0.953855
0.088847 -0.286821 0.953855
0.088847 -0.286821 0.953855
0.088847 -0.286821 0.953855
0.088847 -0.286821 0.953855
0.088847 -0.286821 0.953855
-0.175135 -0.773243 0.609445
-0.175135 -0.773243 0.609445
-0.175135 -0.773243 0.609445
-0.175135 -0.773243 0.609445
-0.175135 -0.773243 0.609445
-0.175135 -0.773243 0.609445
0.000000 -0.829107 0.559089
0.000000 -0.829108 0.559089
0.000000 -0.829107 0.559089
0.000000 -0.829107 0.559089
0.000000 -0.829107 0.559089
0.000000 -0.829107 0.559089
0.432574 -0.472176 0.768069
0.432574 -0.472176 0.768069
0.432574 -0.472176 0.768069
0.432574 -0.472176 0.768069
0.432574 -0.472176 0.768069
0.432574 -0.472176 0.768069
-0.356024 -0.184151 0.916152
-0.356024 -0.184151 0.916152
-0.356024 -0.184151 0.916152
-0.356024 -0.184151 0.916152
-0.356024 -0.184151 0.916152
-0.356024 -0.184151 0.916152
0.000000 -0.470490 0.882405
0.000000 -0.470490 0.882405
0.000000 -0.470490 0.882405
0.000000 -0.470490 0.882405
0.000000 -0.470490 0.882405
0.000000 -0.470490 0.882405
0.358511 -0.297668 0.884796
0.358511 -0.297668 0.884796
0.358511 -0.297668 0.884796
0.358511 -0.297668 0.884796
0.358511 -0.297668 0.884796
0.358511 -0.297668 0.884796
0.000000 -0.158544 0.987352
0.000000 -0.158544 0.987352
0.000000 -0.158544 0.987352
0.000000 -0.158544 0.987352
0.000000 -0.158544 0.987352
0.000000 -0.158544 0.987352
-0.305027 -0.697330 0.648605
-0.305027 -0.697330 0.648605
-0.305027 -0.697330 0.648605
-0.305027 -0.697330 0.648605
-0.305027 -0.697330 0.648605
-0.305027 -0.697330 0.648605
0.000000 -0.744634 0.667472
0.000000 -0.744634 0.667473
0.000000 -0.744634 0.667472
0.000000 -0.744634 0.667472
0.000000 -0.744634 0.667472
0.000000 -0.744634 0.667472
0.311754 -0.362073 0.878472
0.311754 -0.362073 0.878472
0.311754 -0.362073 0.878472
0.311754 -0.362073 0.878472
0.311754 -0.362073 0.878472
0.311754 -0.362073 0.878472
0.000000 -0.259412 0.965767
0.000000 -0.259412 0.965767
0.000000 -0.259412 0.965767
0.000000 -0.259412 0.965767
0.000000 -0.259412 0.965767
0.000000 -0.259412 0.965767
-0.334478 -0.624714 0.705590
-0.334478 -0.624714 0.705590
-0.334478 -0.624714 0.705590
-0.334478 -0.624714 0.705590
-0.334478 -0.624714 0.705590
-0.334478 -0.624714 0.705590
0.000000 -0.744634 0.667472
0.000000 -0.744634 0.667473
0.000000 -0.744634 0.667472
0.000000 -0.744634 0.667472
0.000000 -0.744634 0.667472
0.000000 -0.744635 0.667472
0.338994 -0.492700 0.801454
0.338994 -0.492700 0.801454
0.338994 -0.492701 0.801454
0.338994 -0.492701 0.801454
0.338994 -0.492700 0.801454
0.338994 -0.492700 0.801454
0.000000 -0.259412 0.965767
0.000000 -0.259412 0.965767
0.000000 -0.259412 0.965767
0.000000 -0.259412 0.965767
0.000000 -0.259412 0.965767
0.000000 -0.259412 0.965767
-0.432574 -0.472176 0.768069
-0.432574 -0.472176 0.768069
-0.432574 -0.472176 0.768069
-0.432574 -0.472176 0.768069
-0.432574 -0.472176 0.768069
-0.432574 -0.472176 0.768069
0.000000 -0.829107 0.559089
0.000000 -0.829107 0.559089
0.000000 -0.829107 0.559089
0.000000 -0.829107 0.559089
0.000000 -0.829107 0.559089
0.000000 -0.829107 0.559089
0.175136 -0.773243 0.609445
0.175136 -0.773243 0.609445
0.175136 -0.773243 0.609445
0.175136 -0.773243 0.609445
0.175136 -0.773243 0.609445
0.175136 -0.773243 0.609445
-0.088847 -0.286821 0.953855
-0.088847 -0.286821 0.953855
-0.088847 -0.286821 0.953855
-0.088847 -0.286821 0.953855
-0.088847 -0.286821 0.953855
-0.088847 -0.286821 0.953855
-0.852982 -0.218577 0.473967
-0.852982 -0.218578 0.473967
-0.852982 -0.218578 0.473967
-0.708020 0.037919 -0.705173
-0.708020 0.037919 -0.705173
-0.708020 0.037919 -0.705173
-0.959279 0.265648 0.095998
-0.959279 0.265648 0.095998
-0.959279 0.265648 0.095998
-0.898839 0.195288 0.392366
-0.898839 0.195288 0.392366
-0.898839 0.195288 0.392366
-0.898839 0.195288 0.392366
-0.898839 0.195288 0.392366
-0.898839 0.195288 0.392366
-0.828610 -0.111883 -0.548533
-0.828610 -0.111883 -0.548533
-0.828610 -0.111883 -0.548533
-0.828610 -0.111883 -0.548533
-0.828610 -0.111883 -0.548533
-0.828610 -0.111883 -0.548533
0.000000 0.619500 0.784997
0.000000 0.619500 0.784997
0.000000 0.619500 0.784997
-0.353040 0.874386 0.332883
-0.353040 0.874386 0.332883
-0.353040 0.874386 0.332883
0.353040 0.874386 0.332884
0.353040 0.874386 0.332884
0.353040 0.874386 0.332884
0.269778 0.657530 0.703472
0.269778 0.657530 0.703473
0.269778 0.657530 0.703473
0.269778 0.657530 0.703472
0.269778 0.657530 0.703473
0.269778 0.657530 0.703472
-0.269778 0.657531 0.703473
-0.269777 0.657530 0.703473
-0.269778 0.657531 0.703473
-0.269777 0.657530 0.703473
-0.269778 0.657531 0.703473
-0.269777 0.657530 0.703473
0.852982 -0.218578 0.473968
0.852982 -0.218578 0.473968
0.852982 -0.218578 0.473968
0.959279 0.265647 0.095999
0.959279 0.265647 0.095999
0.959279 0.265647 0.095999
0.708021 0.037918 -0.705172
0.708021 0.037918 -0.705172
0.708021 0.037918 -0.705172
0.828610 -0.111883 -0.548533
0.828610 -0.111883 -0.548533
0.828610 -0.111883 -0.548533
0.828610 -0.111883 -0.548533
0.828610 -0.111883 -0.548533
0.828610 -0.111883 -0.548533
0.898839 0.195288 0.392366
0.898839 0.195288 0.392366
0.898839 0.195288 0.392366
0.898839 0.195288 0.392366
0.898839 0.195288 0.392366
0.898839 0.195288 0.392366
-0.000000 -0.080840 -0.996727
-0.000000 -0.080840 -0.996727
-0.000000 -0.080840 -0.996727
0.111637 0.050771 -0.992451
0.111637 0.050771 -0.992451
0.111637 0.050771 -0.992451
-0.111637 0.050771 -0.992451
-0.111637 0.050771 -0.992451
-0.111637 0.050771 -0.992451
-0.134315 -0.095339 -0.986342
-0.134315 -0.095339 -0.986342
-0.134315 -0.095339 -0.986342
-0.134315 -0.095339 -0.986342
-0.134315 -0.095339 -0.986342
-0.134315 -0.095339 -0.986342
0.134315 -0.095339 -0.986342
0.134315 -0.095339 -0.986342
0.134315 -0.095339 -0.986342
0.134315 -0.095339 -0.986342
0.134315 -0.095339 -0.986342
0.134315 -0.095339 -0.986342
-0.639050 -0.065974 -0.766330
-0.639050 -0.065974 -0.766330
-0.639050 -0.065974 -0.766331
-0.639050 -0.065974 -0.766330
-0.639050 -0.065974 -0.766330
-0.639050 -0.065974 -0.766331
-0.764467 0.509813 -0.394564
-0.764467 0.509813 -0.394564
-0.764467 0.509813 -0.394564
-0.764467 0.509813 -0.394564
-0.764467 0.509813 -0.394564
-0.764467 0.509813 -0.394564
-0.888333 0.444319 0.115956
-0.888333 0.444319 0.115956
-0.888333 0.444319 0.115956
-0.888333 0.444319 0.115956
-0.888333 0.444319 0.115956
-0.888333 0.444319 0.115956
-0.888372 -0.444590 -0.114609
-0.888372 -0.444590 -0.114609
-0.888372 -0.444590 -0.114609
-0.888372 -0.444590 -0.114609
-0.888372 -0.444590 -0.114609
-0.888372 -0.444590 -0.114609
-0.207710 0.970318 -0.123851
-0.207710 0.970318 -0.123851
-0.207710 0.970318 -0.123851
-0.207710 0.970318 -0.123851
-0.207710 0.970318 -0.123851
-0.207710 0.970318 -0.123851
0.207710 0.970318 -0.123852
0.207710 0.970318 -0.123852
0.207710 0.970318 -0.123852
0.207710 0.970318 -0.123852
0.207710 0.970318 -0.123852
0.207710 0.970318 -0.123852
0.210124 0.945594 0.248394
0.210124 0.945594 0.248394
0.210124 0.945594 0.248394
0.210124 0.945594 0.248394
0.210124 0.945594 0.248394
0.210124 0.945594 0.248394
-0.210123 0.945594 0.248394
-0.210123 0.945594 0.248394
-0.210123 0.945594 0.248394
-0.210123 0.945594 0.248394
-0.210123 0.945594 0.248394
-0.210123 0.945594 0.248394
0.764467 0.509813 -0.394565
0.764467 0.509813 -0.394565
0.764467 0.509813 -0.394565
0.764467 0.509813 -0.394565
0.764467 0.509813 -0.394565
0.764467 0.509813 -0.394565
0.639050 -0.065973 -0.766331
0.639050 -0.065973 -0.766331
0.639050 -0.065973 -0.766331
0.639050 -0.065973 -0.766331
0.639050 -0.065973 -0.766331
0.639050 -0.065973 -0.766331
0.888372 -0.444590 -0.114609
0.888372 -0.444590 -0.114609
0.888372 -0.444590 -0.114609
0.888372 -0.444590 -0.114609
0.888372 -0.444590 -0.114609
0.888372 -0.444590 -0.114609
0.888332 0.444319 0.115956
0.888332 0.444320 0.115956
0.888332 0.444320 0.115956
0.888332 0.444320 0.115956
0.888332 0.444319 0.115956
0.888332 0.444320 0.115956
0.137657 -0.306609 -0.941829
0.137657 -0.306609 -0.941829
0.137657 -0.306609 -0.941829
0.137657 -0.306609 -0.941829
0.137657 -0.306609 -0.941829
0.137657 -0.306609 -0.941829
-0.137657 -0.306609 -0.941829
-0.137657 -0.306609 -0.941829
-0.137657 -0.306609 -0.941829
-0.137657 -0.306609 -0.941829
-0.137657 -0.306609 -0.941829
-0.137657 -0.306609 -0.941829
-0.210223 -0.947317 -0.241654
-0.210223 -0.947317 -0.241654
-0.210223 -0.947317 -0.241654
-0.210223 -0.947317 -0.241654
-0.210223 -0.947317 -0.241654
-0.210223 -0.947317 -0.241654
0.210222 -0.947317 -0.241654
0.210222 -0.947317 -0.241654
0.210223 -0.947317 -0.241654
0.210222 -0.947317 -0.241654
0.210222 -0.947317 -0.241654
0.210222 -0.947317 -0.241654
-0.892178 -0.450501 -0.032661
-0.892178 -0.450502 -0.032661
-0.892178 -0.450501 -0.032661
-0.892178 -0.450502 -0.032661
-0.892178 -0.450501 -0.032661
-0.892178 -0.450501 -0.032661
-0.892169 0.450353 0.034895
-0.892169 0.450353 0.034895
-0.892169 0.450353 0.034895
-0.892169 0.450353 0.034895
-0.892169 0.450353 0.034895
-0.892169 0.450353 0.034895
-1.000000 0.000000 0.000000
-1.000000 0.000000 0.000000
-1.000000 0.000000 0.000000
-0.875562 0.433033 0.214182
-0.875562 0.433033 0.214182
-0.875562 0.433033 0.214182
-0.875562 -0.447017 0.183214
-0.875562 -0.447017 0.183214
-0.875562 -0.447017 0.183214
-0.214347 0.973594 0.078548
-0.214347 0.973594 0.078548
-0.214347 0.973594 0.078548
-0.214347 0.973594 0.078548
-0.214347 0.973594 0.078548
-0.214347 0.973594 0.078548
0.214347 0.973594 0.078548
0.214347 0.973594 0.078548
0.214347 0.973594 0.078548
0.214347 0.973594 0.078548
0.214347 0.973594 0.078548
0.214347 0.973594 0.078548
0.000000 0.999381 0.035167
0.000000 0.999381 0.035167
0.000000 0.999381 0.035167
0.213455 0.960359 0.179297
0.213455 0.960359 0.179296
0.213455 0.960359 0.179296
-0.213455 0.960359 0.179297
-0.213455 0.960359 0.179297
-0.213455 0.960359 0.179297
0.892168 0.450353 0.034895
0.892168 0.450353 0.034895
0.892169 0.450353 0.034895
0.892168 0.450353 0.034895
0.892168 0.450353 0.034895
0.892169 0.450353 0.034895
0.892178 -0.450501 -0.032661
0.892178 -0.450501 -0.032661
0.892178 -0.450501 -0.032661
0.892178 -0.450501 -0.032661
0.892178 -0.450501 -0.032661
0.892178 -0.450501 -0.032661
1.000000 0.000000 0.000000
1.000000 0.000000 0.000000
1.000000 0.000000 0.000000
0.875562 -0.447017 0.183214
0.875562 -0.447017 0.183214
0.875562 -0.447017 0.183214
0.875562 0.433033 0.214182
0.875562 0.433033 0.214182
0.875562 0.433033 0.214182
0.214372 -0.974433 -0.067274
0.214372 -0.974433 -0.067274
0.214372 -0.974433 -0.067274
0.214372 -0.974433 -0.067274
0.214372 -0.974433 -0.067274
0.214372 -0.974433 -0.067274
-0.214372 -0.974433 -0.067274
-0.214372 -0.974433 -0.067274
-0.214372 -0.974433 -0.067274
-0.214372 -0.974433 -0.067274
-0.214372 -0.974433 -0.067274
-0.214372 -0.974433 -0.067274
-0.000000 -0.999381 -0.035167
-0.000000 -0.999381 -0.035167
-0.000000 -0.999381 -0.035167
-0.213455 -0.970586 0.111350
-0.213455 -0.970586 0.111350
-0.213455 -0.970586 0.111350
0.213455 -0.970586 0.111350
0.213455 -0.970586 0.111350
0.213455 -0.970586 0.111350
</float_array>
          <technique_common>
            <accessor source="#StandkonsoleFBXASC032grade-Normal0-array" count="876" stride="3">
              <param name="X" type="float"/>
              <param name="Y" type="float"/>
              <param name="Z" type="float"/>
            </accessor>
          </technique_common>
        </source>
        <source id="StandkonsoleFBXASC032grade-UV0">
          <float_array id="StandkonsoleFBXASC032grade-UV0-array" count="384">
0.081670 0.000001
0.148257 0.000001
0.296513 0.179758
0.444770 0.309982
0.000000 0.664564
0.148257 0.664564
0.296513 0.664564
0.444770 0.794788
0.115800 1.000000
0.215789 1.000000
0.296513 1.000000
0.378313 1.000000
0.081670 0.000001
0.148257 0.000001
0.296513 0.179758
0.444770 0.309982
0.000000 0.664564
0.148257 0.664564
0.296513 0.664564
0.444770 0.794788
0.115800 1.000000
0.215789 1.000000
0.296513 1.000000
0.378313 1.000000
0.918330 0.000000
0.851743 0.000000
0.703487 0.179757
0.555230 0.309982
1.000000 0.664564
0.851743 0.664564
0.703487 0.664564
0.555230 0.794788
0.884200 1.000000
0.784211 1.000000
0.703487 1.000000
0.621687 1.000000
0.918330 0.000000
0.851743 0.000000
0.703487 0.179757
0.555230 0.309982
1.000000 0.664564
0.851743 0.664564
0.703487 0.664564
0.555230 0.794788
0.884200 1.000000
0.784211 1.000000
0.703487 1.000000
0.621687 1.000000
0.458577 0.702790
0.458578 0.869250
0.541423 0.869250
0.541423 0.702790
0.458578 0.791193
0.458578 0.944286
0.541423 0.944286
0.541423 0.791193
0.444770 0.786050
0.444770 0.993542
0.555230 0.993542
0.555230 0.786050
0.444770 0.787906
0.444770 0.995398
0.555230 0.995398
0.555230 0.787905
0.337638 0.652113
0.258700 0.859605
0.258700 0.861461
0.337638 0.653969
0.741300 0.859605
0.662362 0.652113
0.662362 0.653969
0.741300 0.861461
0.190217 0.642287
0.190217 0.057000
0.320788 0.215314
0.451358 0.330003
0.548642 0.330003
0.679212 0.215314
0.809783 0.057000
0.809783 0.642287
0.679212 0.642287
0.548642 0.756976
0.451358 0.756976
0.320788 0.642287
0.083109 0.039208
0.142256 0.039208
0.142256 0.629524
0.010563 0.629525
0.013402 0.686725
0.145095 0.686725
0.205083 0.984684
0.116265 0.984684
0.158425 0.686725
0.290118 0.686724
0.290118 0.984684
0.218412 0.984684
0.302674 0.690709
0.434367 0.806384
0.375334 0.988668
0.302674 0.988668
0.916891 0.039207
0.989437 0.629524
0.857744 0.629524
0.857744 0.039207
0.986598 0.686724
0.883735 0.984684
0.794917 0.984684
0.854905 0.686724
0.841575 0.686724
0.781588 0.984684
0.709882 0.984684
0.709882 0.686724
0.697326 0.690708
0.697326 0.988668
0.624666 0.988668
0.565633 0.806383
0.000000 -0.173788
0.210745 0.052381
0.210746 0.662364
0.000000 0.662364
0.421491 0.216229
0.421491 0.826211
1.000000 -0.173789
1.000000 0.662363
0.789254 0.662363
0.789254 0.052381
0.578509 0.826211
0.578509 0.216229
0.079303 0.120028
0.335190 0.120028
0.335190 1.272943
-0.234549 1.272944
1.029200 1.392439
1.598939 1.618358
1.343550 1.974368
1.029200 1.974368
-0.833759 -0.010974
-0.472502 -0.010974
-0.307947 0.469869
-0.551590 0.469870
-0.435938 -0.010974
-0.074681 -0.010974
-0.074681 0.469869
-0.271382 0.469869
0.515362 0.224196
0.753953 0.931832
0.320838 0.931832
0.320837 0.224196
1.372254 -0.035109
1.372254 0.619743
1.139901 0.619743
0.951130 0.219120
0.922975 0.286501
0.704270 0.678121
0.515426 0.678121
0.642970 0.286501
0.614630 0.286501
0.487085 0.678121
0.334624 0.678121
0.334624 0.286502
0.444770 0.681372
0.500000 0.847710
0.555230 0.681371
0.500000 0.515033
0.444770 0.841993
0.500000 0.939002
0.555230 0.841992
0.500000 0.744983
0.444770 0.881712
0.500000 0.985458
0.555230 0.881711
0.500000 0.777966
0.444770 0.786020
0.500000 0.896994
0.555230 0.786020
0.500000 0.675047
0.458577 0.556618
0.458578 0.806125
0.541423 0.806125
0.541423 0.556618
0.444770 0.867740
0.500000 0.969801
0.555230 0.867739
0.500000 0.765678
0.458577 0.769235
0.458578 0.914750
0.541423 0.914750
0.541423 0.769235
0.458578 0.803902
0.458578 0.959521
0.541423 0.959521
0.541423 0.803902
</float_array>
          <technique_common>
            <accessor source="#StandkonsoleFBXASC032grade-UV0-array" count="192" stride="2">
              <param name="S" type="float"/>
              <param name="T" type="float"/>
            </accessor>
          </technique_common>
        </source>
        <vertices id="StandkonsoleFBXASC032grade-VERTEX">
          <input semantic="POSITION" source="#StandkonsoleFBXASC032grade-POSITION"/>
        </vertices>
        <triangles count="266" material="MaterialFBXASC032FBXASC0352142150880">
          <input semantic="VERTEX" offset="0" source="#StandkonsoleFBXASC032grade-VERTEX"/>
          <input semantic="NORMAL" offset="1" source="#StandkonsoleFBXASC032grade-Normal0"/>
          <input semantic="TEXCOORD" offset="2" set="0" source="#StandkonsoleFBXASC032grade-UV0"/>
          <p> 5 0 5 1 1 1 0 2 0 0 3 0 4 4 4 5 5 5 2 6 2 5 7 5 6 8 6 5 9 5 2 10 2 1 11 1 3 12 3 6 13 6 7 14 7 6 15 6 3 16 3 2 17 2 8 18 8 5 19 5 4 20 4 5 21 5 8 22 8 9 23 9 9 24 9 6 25 6 5 26 5 6 27 6 9 28 9 10 29 10 7 30 7 6 31 6 11 32 11 6 33 6 10 34 10 11 35 11 13 72 13 12 73 12 0 74 0 13 75 13 0 76 0 1 77 1 14 78 14 13 79 13 1 80 1 14 81 14 1 82 1 2 83 2 15 84 15 14 85 14 2 86 2 15 87 15 2 88 2 3 89 3 19 90 19 11 91 11 23 92 23 11 93 11 19 94 19 7 95 7 22 96 22 23 97 23 11 98 11 22 99 22 11 100 11 10 101 10 21 102 21 22 103 22 10 104 10 21 105 21 10 106 10 9 107 9 20 108 20 21 109 21 9 110 9 20 111 20 9 112 9 8 113 8 16 114 16 8 115 8 4 116 4 16 117 16 20 118 20 8 119 8 12 120 12 16 121 16 4 122 4 12 123 12 4 124 4 0 125 0 25 126 25 29 127 29 24 128 24 24 129 24 29 130 29 28 131 28 26 132 26 29 133 29 25 134 25 29 135 29 26 136 26 30 137 30 27 138 27 30 139 30 26 140 26 30 141 30 27 142 27 31 143 31 29 144 29 32 145 32 28 146 28 32 147 32 29 148 29 33 149 33 30 150 30 33 151 33 29 152 29 33 153 33 30 154 30 34 155 34 35 156 35 30 157 30 31 158 31 30 159 30 35 160 35 34 161 34 37 198 37 24 199 24 36 200 36 24 201 24 37 202 37 25 203 25 38 204 38 25 205 25 37 206 37 25 207 25 38 208 38 26 209 26 39 210 39 26 211 26 38 212 38 26 213 26 39 214 39 27 215 27 43 216 43 35 217 35 31 218 31 35 219 35 43 220 43 47 221 47 46 222 46 35 223 35 47 224 47 35 225 35 46 226 46 34 227 34 45 228 45 34 229 34 46 230 46 34 231 34 45 232 45 33 233 33 44 234 44 33 235 33 45 236 45 33 237 33 44 238 44 32 239 32 40 240 40 32 241 32 44 242 44 28 243 28 32 244 32 40 245 40 36 246 36 28 247 28 40 248 40 24 249 24 28 250 28 36 251 36 43 252 43 7 253 7 19 254 19 7 255 7 43 256 43 31 257 31 3 264 3 27 265 27 15 266 15 39 267 39 15 268 15 27 269 27 63 270 63 60 271 60 62 272 62 60 273 60 61 274 61 62 275 62 64 276 64 65 277 65 66 278 66 64 279 64 66 280 66 67 281 67 62 282 62 57 283 57 58 284 58 57 285 57 62 286 62 61 287 61 69 288 69 71 289 71 68 290 68 71 291 71 69 292 69 70 293 70 56 294 56 63 295 63 59 296 59 63 297 63 56 298 56 60 299 60 57 300 57 64 301 64 56 302 56 64 303 64 57 304 57 65 305 65 61 306 61 66 307 66 57 308 57 65 309 65 57 310 57 66 311 66 67 312 67 61 313 61 60 314 60 61 315 61 67 316 67 66 317 66 64 318 64 60 319 60 56 320 56 60 321 60 64 322 64 67 323 67 68 324 68 58 325 58 69 326 69 69 327 69 58 328 58 59 329 59 63 330 63 70 331 70 59 332 59 69 333 69 59 334 59 70 335 70 62 336 62 70 337 70 63 338 63 70 339 70 62 340 62 71 341 71 68 342 68 62 343 62 58 344 58 62 345 62 68 346 68 71 347 71 73 348 73 72 349 72 17 350 17 17 351 17 13 352 13 73 353 73 13 354 13 14 355 14 73 356 73 74 357 74 73 358 73 14 359 14 74 360 74 15 361 15 75 362 75 14 363 14 15 364 15 74 365 74 15 366 15 39 367 39 76 368 76 15 369 15 76 370 76 75 371 75 39 372 39 38 373 38 77 374 77 77 375 77 76 376 76 39 377 39 38 378 38 37 379 37 78 380 78 78 381 78 77 382 77 38 383 38 41 384 41 78 385 78 37 386 37 78 387 78 41 388 41 79 389 79 79 390 79 42 391 42 80 392 80 41 393 41 42 394 42 79 395 79 43 396 43 80 397 80 42 398 42 80 399 80 43 400 43 81 401 81 19 402 19 81 403 81 43 404 43 81 405 81 19 406 19 82 407 82 19 408 19 18 409 18 83 410 83 19 411 19 83 412 83 82 413 82 72 414 72 83 415 83 18 416 18 18 417 18 17 418 17 72 419 72 85 420 85 84 421 84 12 422 12 12 423 12 13 424 13 85 425 85 17 426 17 85 427 85 13 428 13 85 429 85 17 430 17 86 431 86 17 432 17 16 433 16 87 434 87 17 435 17 87 436 87 86 437 86 12 438 12 87 439 87 16 440 16 87 441 87 12 442 12 84 443 84 17 444 17 88 445 88 16 446 16 88 447 88 17 448 17 89 449 89 90 450 90 17 451 17 21 452 21 17 453 17 90 454 90 89 455 89 20 456 20 90 457 90 21 458 21 90 459 90 20 460 20 91 461 91 20 462 20 16 463 16 88 464 88 20 465 20 88 466 88 91 467 91 18 468 18 92 469 92 17 470 17 92 471 92 18 472 18 93 473 93 22 474 22 93 475 93 18 476 18 93 477 93 22 478 22 94 479 94 21 480 21 94 481 94 22 482 22 94 483 94 21 484 21 95 485 95 21 486 21 17 487 17 92 488 92 21 489 21 92 490 92 95 491 95 18 492 18 19 493 19 97 494 97 18 495 18 97 496 97 96 497 96 23 498 23 97 499 97 19 500 19 97 501 97 23 502 23 98 503 98 23 504 23 22 505 22 99 506 99 23 507 23 99 508 99 98 509 98 96 510 96 99 511 99 22 512 22 22 513 22 18 514 18 96 515 96 101 516 101 36 517 36 40 518 40 36 519 36 101 520 101 100 521 100 41 522 41 101 523 101 40 524 40 101 525 101 41 526 41 102 527 102 41 528 41 37 529 37 103 530 103 41 531 41 103 532 103 102 533 102 103 534 103 36 535 36 100 536 100 36 537 36 103 538 103 37 539 37 44 540 44 104 541 104 40 542 40 104 543 104 44 544 44 105 545 105 44 546 44 45 547 45 106 548 106 44 549 44 106 550 106 105 551 105 41 552 41 106 553 106 45 554 45 106 555 106 41 556 41 107 557 107 41 558 41 40 559 40 104 560 104 41 561 41 104 562 104 107 563 107 45 564 45 108 565 108 41 566 41 108 567 108 45 568 45 109 569 109 45 570 45 46 571 46 110 572 110 45 573 45 110 574 110 109 575 109 111 576 111 110 577 110 46 578 46 46 579 46 42 580 42 111 581 111 42 582 42 41 583 41 108 584 108 42 585 42 108 586 108 111 587 111 46 588 46 112 589 112 42 590 42 112 591 112 46 592 46 113 593 113 47 594 47 113 595 113 46 596 46 113 597 113 47 598 47 114 599 114 47 600 47 43 601 43 115 602 115 47 603 47 115 604 115 114 605 114 42 606 42 115 607 115 43 608 43 115 609 115 42 610 42 112 611 112 3 612 3 7 613 7 116 614 160 132 615 176 3 616 3 116 617 160 7 618 7 133 619 177 116 620 160 133 621 177 128 622 172 116 623 160 128 624 172 133 625 177 49 626 49 128 627 172 48 628 48 116 629 160 48 630 48 132 631 176 116 632 160 7 633 7 31 634 31 117 635 161 133 636 177 7 637 7 117 638 161 31 639 31 134 640 178 117 641 161 50 642 50 129 643 173 117 644 161 50 645 50 117 646 161 134 647 178 133 648 177 117 649 161 49 650 49 129 651 173 49 652 49 117 653 161 31 654 31 27 655 27 118 656 162 134 657 178 31 658 31 118 659 162 27 660 27 135 661 179 118 662 162 130 663 174 118 664 162 51 665 51 135 666 179 51 667 51 118 668 162 130 669 174 134 670 178 118 671 162 134 672 178 130 673 174 50 674 50 27 675 27 3 676 3 119 677 163 135 678 179 27 679 27 119 680 163 3 681 3 132 682 176 119 683 163 132 684 176 131 685 175 119 686 163 131 687 175 132 688 176 48 689 48 135 690 179 131 691 175 51 692 51 131 693 175 135 694 179 119 695 163 140 696 184 128 697 172 120 698 164 128 699 172 140 700 184 48 701 48 128 702 172 49 703 49 120 704 164 49 705 49 141 706 185 120 707 164 141 708 185 136 709 180 120 710 164 136 711 180 141 712 185 53 713 53 120 714 164 52 715 52 140 716 184 52 717 52 120 718 164 136 719 180 129 720 173 141 721 185 49 722 49 141 723 185 129 724 173 121 725 165 142 726 186 129 727 173 50 728 50 129 729 173 142 730 186 121 731 165 142 732 186 137 733 181 121 734 165 137 735 181 142 736 186 54 737 54 141 738 185 137 739 181 53 740 53 137 741 181 141 742 185 121 743 165 122 744 166 50 745 50 130 746 174 50 747 50 122 748 166 142 749 186 130 750 174 143 751 187 122 752 166 143 753 187 130 754 174 51 755 51 143 756 187 55 757 55 122 758 166 55 759 55 138 760 182 122 761 166 138 762 182 142 763 186 122 764 166 142 765 186 138 766 182 54 767 54 131 768 175 143 769 187 51 770 51 143 771 187 131 772 175 123 773 167 140 774 184 131 775 175 48 776 48 131 777 175 140 778 184 123 779 167 123 780 167 140 781 184 52 782 52 123 783 167 52 784 52 139 785 183 123 786 167 55 787 55 143 788 187 55 789 55 123 790 167 139 791 183 136 792 180 144 793 188 52 794 52 144 795 188 136 796 180 124 797 168 124 798 168 136 799 180 53 800 53 53 801 53 145 802 189 124 803 168 57 804 57 56 805 56 124 806 168 145 807 189 57 808 57 124 809 168 56 810 56 144 811 188 124 812 168 137 813 181 125 814 169 53 815 53 53 816 53 125 817 169 145 818 189 137 819 181 54 820 54 125 821 169 54 822 54 146 823 190 125 824 169 58 825 58 57 826 57 125 827 169 146 828 190 58 829 58 125 830 169 57 831 57 145 832 189 125 833 169 126 834 170 54 835 54 138 836 182 54 837 54 126 838 170 146 839 190 138 840 182 147 841 191 126 842 170 147 843 191 138 844 182 55 845 55 59 846 59 58 847 58 126 848 170 147 849 191 59 850 59 126 851 170 58 852 58 146 853 190 126 854 170 139 855 183 147 856 191 55 857 55 147 858 191 139 859 183 127 860 171 139 861 183 144 862 188 127 863 171 144 864 188 139 865 183 52 866 52 56 867 56 59 868 59 127 869 171 144 870 188 56 871 56 127 872 171 59 873 59 147 874 191 127 875 171</p>
        </triangles>
        <triangles count="10" material="MaterialFBXASC032FBXASC0352142171025">
          <input semantic="VERTEX" offset="0" source="#StandkonsoleFBXASC032grade-VERTEX"/>
          <input semantic="NORMAL" offset="1" source="#StandkonsoleFBXASC032grade-Normal0"/>
          <input semantic="TEXCOORD" offset="2" set="0" source="#StandkonsoleFBXASC032grade-UV0"/>
          <p> 72 42 119 74 43 117 83 44 118 74 45 117 72 46 119 73 47 116 83 48 118 75 49 120 82 50 121 75 51 120 83 52 118 74 53 117 79 168 123 77 169 125 78 170 122 77 171 125 79 172 123 80 173 124 80 174 124 76 175 127 77 176 125 76 177 127 80 178 124 81 179 126 81 258 126 75 259 120 76 260 127 75 261 120 81 262 126 82 263 121</p>
        </triangles>
        <triangles count="12" material="MaterialFBXASC032FBXASC0352142148966">
          <input semantic="VERTEX" offset="0" source="#StandkonsoleFBXASC032grade-VERTEX"/>
          <input semantic="NORMAL" offset="1" source="#StandkonsoleFBXASC032grade-Normal0"/>
          <input semantic="TEXCOORD" offset="2" set="0" source="#StandkonsoleFBXASC032grade-UV0"/>
          <p> 87 36 131 84 37 128 86 38 130 86 39 130 84 40 128 85 41 129 91 54 139 89 55 137 90 56 138 89 57 137 91 58 139 88 59 136 95 60 143 93 61 141 94 62 142 93 63 141 95 64 143 92 65 140 102 162 146 100 163 144 101 164 145 100 165 144 102 166 146 103 167 147 107 180 155 105 181 153 106 182 154 105 183 153 107 184 155 104 185 152 111 186 159 109 187 157 110 188 158 109 189 157 111 190 159 108 191 156</p>
        </triangles>
        <triangles count="4" material="MaterialFBXASC032FBXASC0352142172407">
          <input semantic="VERTEX" offset="0" source="#StandkonsoleFBXASC032grade-VERTEX"/>
          <input semantic="NORMAL" offset="1" source="#StandkonsoleFBXASC032grade-Normal0"/>
          <input semantic="TEXCOORD" offset="2" set="0" source="#StandkonsoleFBXASC032grade-UV0"/>
          <p> 98 66 134 99 67 135 96 68 132 96 69 132 97 70 133 98 71 134 114 192 150 112 193 148 113 194 149 112 195 148 114 196 150 115 197 151</p>
        </triangles>
      </mesh>
    </geometry>
  </library_geometries>
  <library_visual_scenes>
    <visual_scene id="free terminal 1" name="free terminal 1">
      <node name="StandkonsoleFBXASC032grade" id="StandkonsoleFBXASC032grade" layer="Layer001" sid="StandkonsoleFBXASC032grade">
        <matrix sid="matrix">0.737783 0.000000 0.000000 -13.520688 0.000000 0.000000 0.737783 -3.047853 0.000000 -0.737783 0.000000 -59.036591 0.000000 0.000000 0.000000 1.000000</matrix>
        <instance_geometry url="#StandkonsoleFBXASC032grade-lib">
          <bind_material>
            <technique_common>
              <instance_material symbol="MaterialFBXASC032FBXASC0352142150880" target="#MaterialFBXASC032FBXASC0352142150880"/>
              <instance_material symbol="MaterialFBXASC032FBXASC0352142171025" target="#MaterialFBXASC032FBXASC0352142171025"/>
              <instance_material symbol="MaterialFBXASC032FBXASC0352142148966" target="#MaterialFBXASC032FBXASC0352142148966"/>
              <instance_material symbol="MaterialFBXASC032FBXASC0352142172407" target="#MaterialFBXASC032FBXASC0352142172407"/>
            </technique_common>
          </bind_material>
        </instance_geometry>
        <extra>
          <technique profile="FCOLLADA">
            <visibility>1.000000</visibility>
          </technique>
        </extra>
      </node>
      <extra>
        <technique profile="MAX3D">
          <frame_rate>30.000000</frame_rate>
        </technique>
        <technique profile="FCOLLADA">
          <start_time>0.000000</start_time>
          <end_time>1.000000</end_time>
        </technique>
      </extra>
    </visual_scene>
  </library_visual_scenes>
  <scene>
    <instance_visual_scene url="#free terminal 1"/>
  </scene>
</COLLADA>
